<svg width="46" height="46" viewBox="0 0 46 46" fill="none" xmlns="http://www.w3.org/2000/svg">
  <path d="M45.3018 22.607C45.3018 10.1806 35.2282 0.106979 22.8018 0.106979C10.3754 0.106979 0.301758 10.1806 0.301758 22.607C0.301758 35.0334 10.3754 45.107 22.8018 45.107C35.2282 45.107 45.3018 35.0334 45.3018 22.607Z" fill="#fff"/>
  <mask id="mask0_1622_66" style="mask-type:alpha" maskUnits="userSpaceOnUse" x="6" y="12" width="34" height="20">
    <path d="M36.3968 31.8342H9.66657C9.10411 31.8342 8.62542 31.441 8.51112 30.9032L8.4932 30.7938L6.67526 15.93C6.62685 15.5124 6.76054 15.0942 7.04251 14.7812C7.55651 14.2107 8.41766 14.1337 9.02329 14.583L9.12739 14.6678L14.5309 20.9169C15.1172 21.4136 15.981 21.375 16.5205 20.8489L16.6123 20.751L22.0209 12.8053C22.0711 12.7467 22.1258 12.6921 22.1845 12.642C22.7694 12.1437 23.6333 12.18 24.1743 12.7046L24.2663 12.8022L29.7772 20.831C30.1705 21.2609 30.7615 21.4052 31.2869 21.2515L36.7022 14.7198C36.9825 14.466 37.3487 14.3303 37.7241 14.3375L37.7984 14.3419C37.8933 14.3343 37.9894 14.3359 38.0854 14.3469C38.855 14.4352 39.4177 15.0973 39.3919 15.8542L39.3829 15.9745L37.5702 30.7938C37.5057 31.3497 37.0581 31.7777 36.5081 31.8291L36.3968 31.8342H9.66657H36.3968Z" fill="#000"/>
  </mask>
  <g mask="url(#mask0_1622_66)">
    <path d="M36.3968 32.8342H9.66657C9.10411 32.8342 8.62542 32.441 8.51112 31.9032L8.4932 31.7938L6.67526 16.93C6.62685 16.5124 6.76054 16.0942 7.04251 15.7812C7.55651 15.2107 8.41766 15.1337 9.02329 15.583L9.12739 15.6678L14.5309 21.9169C15.1172 22.4136 15.981 22.375 16.5205 21.8489L16.6123 21.751L22.0209 13.8053C22.0711 13.7467 22.1258 13.6921 22.1845 13.642C22.7694 13.1437 23.6333 13.18 24.1743 13.7046L24.2663 13.8022L29.7772 21.831C30.1705 22.2609 30.7615 22.4052 31.2869 22.2515L36.7022 15.7198C36.9825 15.466 37.3487 15.3303 37.7241 15.3375L37.7984 15.3419C37.8933 15.3343 37.9894 15.3359 38.0854 15.3469C38.855 15.4352 39.4177 16.0973 39.3919 16.8542L39.3829 16.9745L37.5702 31.7938C37.5057 32.3497 37.0581 32.7777 36.5081 32.8291L36.3968 32.8342H9.66657H36.3968Z" fill="#000"/>
  </g>
</svg>

